<?xml version="1.0" encoding="UTF-8"?>
<svg xmlns="http://www.w3.org/2000/svg" xmlns:xlink="http://www.w3.org/1999/xlink" width="1280" height="720" viewBox="0 0 1280 720">
<defs>
<g>
<g id="glyph-0-0">
<path d="M 2.761719 0 L 2.140625 0 L 1.019531 -1.710938 C 0.953125 -1.8125 0.910156 -1.886719 0.882812 -1.9375 L 0.875 -1.9375 C 0.886719 -1.839844 0.890625 -1.695312 0.890625 -1.496094 L 0.890625 0 L 0.3125 0 L 0.3125 -2.722656 L 0.972656 -2.722656 L 2.054688 -1.066406 C 2.101562 -0.992188 2.148438 -0.917969 2.191406 -0.84375 L 2.195312 -0.84375 C 2.1875 -0.90625 2.183594 -1.03125 2.183594 -1.21875 L 2.183594 -2.722656 L 2.761719 -2.722656 Z "/>
</g>
<g id="glyph-0-1">
<path d="M 1.460938 0.046875 C 1.074219 0.046875 0.753906 -0.078125 0.507812 -0.332031 C 0.261719 -0.585938 0.140625 -0.917969 0.140625 -1.324219 C 0.140625 -1.757812 0.265625 -2.105469 0.515625 -2.371094 C 0.765625 -2.636719 1.09375 -2.769531 1.507812 -2.769531 C 1.894531 -2.769531 2.207031 -2.640625 2.449219 -2.386719 C 2.6875 -2.132812 2.808594 -1.796875 2.808594 -1.378906 C 2.808594 -0.953125 2.683594 -0.609375 2.4375 -0.34375 C 2.1875 -0.0820312 1.863281 0.046875 1.460938 0.046875 M 1.488281 -2.242188 C 1.273438 -2.242188 1.101562 -2.160156 0.976562 -2 C 0.847656 -1.835938 0.785156 -1.625 0.785156 -1.359375 C 0.785156 -1.089844 0.847656 -0.875 0.976562 -0.71875 C 1.101562 -0.5625 1.269531 -0.480469 1.472656 -0.480469 C 1.683594 -0.480469 1.851562 -0.558594 1.976562 -0.710938 C 2.101562 -0.863281 2.164062 -1.074219 2.164062 -1.347656 C 2.164062 -1.628906 2.101562 -1.847656 1.984375 -2.003906 C 1.863281 -2.164062 1.699219 -2.242188 1.488281 -2.242188 Z "/>
</g>
<g id="glyph-0-2">
</g>
<g id="glyph-0-3">
<path d="M 1.933594 0 L 0.3125 0 L 0.3125 -2.722656 L 0.925781 -2.722656 L 0.925781 -0.496094 L 1.933594 -0.496094 Z "/>
</g>
<g id="glyph-0-4">
<path d="M 0.925781 0 L 0.3125 0 L 0.3125 -2.722656 L 0.925781 -2.722656 Z "/>
</g>
<g id="glyph-0-5">
<path d="M 2.574219 0 L 1.800781 0 L 1.007812 -1.183594 C 0.992188 -1.207031 0.96875 -1.257812 0.933594 -1.332031 L 0.925781 -1.332031 L 0.925781 0 L 0.3125 0 L 0.3125 -2.722656 L 0.925781 -2.722656 L 0.925781 -1.4375 L 0.933594 -1.4375 C 0.949219 -1.472656 0.976562 -1.523438 1.011719 -1.585938 L 1.761719 -2.722656 L 2.492188 -2.722656 L 1.542969 -1.425781 Z "/>
</g>
<g id="glyph-0-6">
<path d="M 2.222656 -2.222656 L 1.445312 -2.222656 L 1.445312 0 L 0.832031 0 L 0.832031 -2.222656 L 0.0585938 -2.222656 L 0.0585938 -2.722656 L 2.222656 -2.722656 Z "/>
</g>
<g id="glyph-0-7">
<path d="M 3.875 -2.722656 L 3.15625 0 L 2.472656 0 L 2.023438 -1.746094 C 2 -1.839844 1.984375 -1.941406 1.980469 -2.054688 L 1.972656 -2.054688 C 1.960938 -1.929688 1.945312 -1.828125 1.921875 -1.746094 L 1.457031 0 L 0.75 0 L 0.0351562 -2.722656 L 0.703125 -2.722656 L 1.089844 -0.910156 C 1.105469 -0.832031 1.117188 -0.730469 1.125 -0.597656 L 1.136719 -0.597656 C 1.140625 -0.695312 1.160156 -0.800781 1.191406 -0.917969 L 1.683594 -2.722656 L 2.339844 -2.722656 L 2.789062 -0.894531 C 2.804688 -0.828125 2.820312 -0.730469 2.832031 -0.601562 L 2.839844 -0.601562 C 2.84375 -0.703125 2.859375 -0.804688 2.878906 -0.90625 L 3.253906 -2.722656 Z "/>
</g>
</g>
</defs>
<g fill="rgb(95.686275%, 24.705882%, 36.862745%)" fill-opacity="1">
<use xlink:href="#glyph-0-0" x="30" y="24.196289"/>
<use xlink:href="#glyph-0-1" x="33" y="24.196289"/>
<use xlink:href="#glyph-0-2" x="36" y="24.196289"/>
<use xlink:href="#glyph-0-3" x="37" y="24.196289"/>
<use xlink:href="#glyph-0-4" x="39" y="24.196289"/>
<use xlink:href="#glyph-0-0" x="40" y="24.196289"/>
<use xlink:href="#glyph-0-5" x="43" y="24.196289"/>
<use xlink:href="#glyph-0-2" x="46" y="24.196289"/>
<use xlink:href="#glyph-0-6" x="47" y="24.196289"/>
<use xlink:href="#glyph-0-1" x="49" y="24.196289"/>
<use xlink:href="#glyph-0-2" x="52" y="24.196289"/>
<use xlink:href="#glyph-0-0" x="53" y="24.196289"/>
<use xlink:href="#glyph-0-1" x="56" y="24.196289"/>
<use xlink:href="#glyph-0-7" x="59" y="24.196289"/>
</g>
</svg>
