<?xml version="1.0" encoding="UTF-8"?>
<svg xmlns="http://www.w3.org/2000/svg" xmlns:xlink="http://www.w3.org/1999/xlink" width="1280" height="720" viewBox="0 0 1280 720">
<defs>
<g>
<g id="glyph-0-0">
<path d="M 2.511719 -2.546875 L 2.511719 0 L 0.84375 0 L 0.84375 -7.390625 L 3.453125 -7.390625 C 5.316406 -7.390625 6.246094 -6.605469 6.246094 -5.035156 C 6.246094 -4.292969 5.980469 -3.691406 5.445312 -3.234375 C 4.910156 -2.777344 4.199219 -2.546875 3.304688 -2.546875 L 2.511719 -2.546875 M 2.511719 -6.113281 L 2.511719 -3.808594 L 3.164062 -3.808594 C 4.050781 -3.808594 4.496094 -4.199219 4.496094 -4.972656 C 4.496094 -5.734375 4.050781 -6.113281 3.164062 -6.113281 Z "/>
</g>
<g id="glyph-0-1">
<path d="M 7.34375 0 L 5.53125 0 L 5.003906 -1.644531 L 2.375 -1.644531 L 1.855469 0 L 0.0507812 0 L 2.742188 -7.390625 L 4.714844 -7.390625 L 7.34375 0 M 4.625 -2.921875 L 3.828125 -5.40625 C 3.769531 -5.59375 3.730469 -5.8125 3.707031 -6.070312 L 3.664062 -6.070312 C 3.648438 -5.855469 3.605469 -5.640625 3.535156 -5.425781 L 2.730469 -2.921875 Z "/>
</g>
<g id="glyph-0-2">
<path d="M 0.503906 -0.285156 L 0.503906 -1.933594 C 0.804688 -1.683594 1.128906 -1.492188 1.480469 -1.367188 C 1.828125 -1.242188 2.183594 -1.179688 2.542969 -1.179688 C 2.75 -1.179688 2.933594 -1.199219 3.089844 -1.238281 C 3.246094 -1.273438 3.375 -1.328125 3.480469 -1.394531 C 3.585938 -1.460938 3.664062 -1.539062 3.714844 -1.632812 C 3.769531 -1.722656 3.792969 -1.820312 3.792969 -1.925781 C 3.792969 -2.070312 3.753906 -2.199219 3.667969 -2.3125 C 3.585938 -2.425781 3.476562 -2.53125 3.332031 -2.628906 C 3.191406 -2.726562 3.019531 -2.816406 2.824219 -2.90625 C 2.628906 -2.996094 2.417969 -3.085938 2.191406 -3.179688 C 1.613281 -3.421875 1.183594 -3.714844 0.898438 -4.0625 C 0.617188 -4.410156 0.472656 -4.828125 0.472656 -5.320312 C 0.472656 -5.703125 0.550781 -6.035156 0.707031 -6.3125 C 0.859375 -6.589844 1.070312 -6.816406 1.335938 -6.996094 C 1.605469 -7.171875 1.914062 -7.304688 2.261719 -7.390625 C 2.613281 -7.472656 2.984375 -7.515625 3.375 -7.515625 C 3.761719 -7.515625 4.101562 -7.492188 4.398438 -7.445312 C 4.695312 -7.398438 4.96875 -7.328125 5.222656 -7.230469 L 5.222656 -5.691406 C 5.097656 -5.777344 4.960938 -5.851562 4.816406 -5.917969 C 4.671875 -5.980469 4.519531 -6.035156 4.367188 -6.078125 C 4.210938 -6.121094 4.058594 -6.152344 3.90625 -6.175781 C 3.75 -6.195312 3.605469 -6.207031 3.46875 -6.207031 C 3.28125 -6.207031 3.109375 -6.1875 2.953125 -6.152344 C 2.796875 -6.117188 2.667969 -6.066406 2.5625 -6 C 2.457031 -5.933594 2.371094 -5.855469 2.3125 -5.765625 C 2.257812 -5.675781 2.226562 -5.570312 2.226562 -5.457031 C 2.226562 -5.335938 2.257812 -5.222656 2.324219 -5.125 C 2.390625 -5.027344 2.484375 -4.933594 2.601562 -4.847656 C 2.722656 -4.761719 2.871094 -4.675781 3.042969 -4.589844 C 3.210938 -4.503906 3.40625 -4.417969 3.625 -4.328125 C 3.917969 -4.207031 4.183594 -4.074219 4.417969 -3.933594 C 4.65625 -3.796875 4.855469 -3.640625 5.027344 -3.464844 C 5.195312 -3.289062 5.324219 -3.089844 5.410156 -2.863281 C 5.5 -2.636719 5.546875 -2.375 5.546875 -2.078125 C 5.546875 -1.664062 5.46875 -1.320312 5.3125 -1.039062 C 5.15625 -0.757812 4.941406 -0.53125 4.675781 -0.359375 C 4.40625 -0.183594 4.09375 -0.0585938 3.738281 0.015625 C 3.382812 0.0898438 3.007812 0.128906 2.613281 0.128906 C 2.207031 0.128906 1.820312 0.09375 1.457031 0.0273438 C 1.089844 -0.0429688 0.773438 -0.144531 0.503906 -0.285156 Z "/>
</g>
<g id="glyph-0-3">
<path d="M 6.035156 -6.035156 L 3.925781 -6.035156 L 3.925781 0 L 2.257812 0 L 2.257812 -6.035156 L 0.160156 -6.035156 L 0.160156 -7.390625 L 6.035156 -7.390625 Z "/>
</g>
<g id="glyph-0-4">
</g>
<g id="glyph-0-5">
<path d="M 2.511719 0 L 0.84375 0 L 0.84375 -7.390625 L 2.511719 -7.390625 Z "/>
</g>
<g id="glyph-0-6">
<path d="M 9.265625 0 L 7.625 0 L 7.625 -4.421875 C 7.625 -4.898438 7.644531 -5.425781 7.683594 -6.003906 L 7.644531 -6.003906 C 7.558594 -5.550781 7.480469 -5.226562 7.410156 -5.027344 L 5.679688 0 L 4.320312 0 L 2.554688 -4.972656 C 2.507812 -5.109375 2.429688 -5.453125 2.324219 -6.003906 L 2.277344 -6.003906 C 2.324219 -5.277344 2.34375 -4.636719 2.34375 -4.085938 L 2.34375 0 L 0.84375 0 L 0.84375 -7.390625 L 3.285156 -7.390625 L 4.792969 -3.011719 C 4.914062 -2.660156 5 -2.308594 5.054688 -1.953125 L 5.085938 -1.953125 C 5.179688 -2.363281 5.277344 -2.71875 5.382812 -3.019531 L 6.890625 -7.390625 L 9.265625 -7.390625 Z "/>
</g>
<g id="glyph-0-7">
<path d="M 5.246094 0 L 0.84375 0 L 0.84375 -7.390625 L 2.511719 -7.390625 L 2.511719 -1.351562 L 5.246094 -1.351562 Z "/>
</g>
<g id="glyph-0-8">
<path d="M 5.277344 0 L 0.84375 0 L 0.84375 -7.390625 L 5.109375 -7.390625 L 5.109375 -6.035156 L 2.511719 -6.035156 L 2.511719 -4.390625 L 4.925781 -4.390625 L 4.925781 -3.042969 L 2.511719 -3.042969 L 2.511719 -1.351562 L 5.277344 -1.351562 Z "/>
</g>
</g>
</defs>
<g fill="rgb(95.686275%, 24.705882%, 36.862745%)" fill-opacity="1">
<use xlink:href="#glyph-0-0" x="30" y="31.390625"/>
<use xlink:href="#glyph-0-1" x="36" y="31.390625"/>
<use xlink:href="#glyph-0-2" x="43" y="31.390625"/>
<use xlink:href="#glyph-0-3" x="49" y="31.390625"/>
<use xlink:href="#glyph-0-4" x="55" y="31.390625"/>
<use xlink:href="#glyph-0-2" x="58" y="31.390625"/>
<use xlink:href="#glyph-0-5" x="64" y="31.390625"/>
<use xlink:href="#glyph-0-6" x="67" y="31.390625"/>
<use xlink:href="#glyph-0-0" x="77" y="31.390625"/>
<use xlink:href="#glyph-0-7" x="83" y="31.390625"/>
<use xlink:href="#glyph-0-8" x="88" y="31.390625"/>
</g>
</svg>
